<?xml version="1.0" encoding="utf-8"?>
<!-- Generator: Adobe Illustrator 27.8.0, SVG Export Plug-In . SVG Version: 6.00 Build 0)  -->
<svg version="1.1" id="Layer_1" xmlns="http://www.w3.org/2000/svg" xmlns:xlink="http://www.w3.org/1999/xlink" x="0px" y="0px"
	 viewBox="0 0 500 500" style="enable-background:new 0 0 500 500;" xml:space="preserve">
<style type="text/css">
	.st0{fill:#66B73C;}
</style>
<path class="st0" d="M324.5,243.3C324.5,243.3,324.5,243.3,324.5,243.3c1-0.7,2-1.4,3-2.1c0.2-0.2,0.5-0.4,0.7-0.5
	c0.8-0.6,1.5-1.1,2.3-1.7c0.3-0.2,0.5-0.4,0.8-0.6c0.8-0.6,1.6-1.2,2.3-1.8c0.2-0.2,0.4-0.3,0.6-0.5c1.9-1.6,3.8-3.2,5.6-4.9
	c0.2-0.2,0.5-0.4,0.7-0.6c0.7-0.6,1.4-1.3,2-1.9c0.2-0.2,0.5-0.5,0.7-0.7c0.7-0.7,1.4-1.4,2.1-2.1c0.2-0.2,0.4-0.4,0.5-0.6
	c1.7-1.8,3.4-3.6,5-5.5c0.2-0.2,0.4-0.5,0.6-0.7c0.6-0.7,1.2-1.4,1.8-2.1c0.2-0.3,0.5-0.6,0.7-0.8c0.6-0.7,1.2-1.5,1.8-2.3
	c0.2-0.2,0.3-0.5,0.5-0.7c1.5-2,2.9-4,4.3-6.1c0.2-0.3,0.4-0.6,0.6-0.8c0.5-0.8,1-1.5,1.5-2.3c0.2-0.3,0.4-0.6,0.6-1
	c0.5-0.8,1-1.6,1.4-2.4c0.2-0.3,0.3-0.5,0.5-0.8c0.6-1.1,1.2-2.2,1.8-3.3c0,0,0,0,0,0c0.6-1.1,1.1-2.1,1.7-3.2
	c0.2-0.3,0.3-0.6,0.5-1c0.4-0.8,0.8-1.6,1.2-2.4c0.2-0.4,0.3-0.7,0.5-1.1c0.4-0.8,0.7-1.6,1.1-2.5c0.1-0.3,0.3-0.6,0.4-0.9
	c0.5-1.1,1-2.3,1.4-3.5c0,0,0-0.1,0-0.1c0.4-1.1,0.9-2.2,1.3-3.4c0.1-0.4,0.3-0.7,0.4-1.1c0.3-0.8,0.6-1.7,0.9-2.5
	c0.1-0.4,0.3-0.8,0.4-1.2c0.3-0.8,0.5-1.7,0.8-2.6c0.1-0.4,0.2-0.7,0.3-1.1c0.3-1.2,0.7-2.4,1-3.6c0,0,0-0.1,0-0.1
	c0.3-1.2,0.6-2.4,0.9-3.5c0.1-0.4,0.2-0.8,0.3-1.2c0.2-0.9,0.4-1.7,0.5-2.6c0.1-0.4,0.2-0.9,0.2-1.3c0.2-0.9,0.3-1.8,0.5-2.6
	c0.1-0.4,0.1-0.8,0.2-1.2c0.2-1.3,0.4-2.5,0.5-3.8c0,0,0-0.1,0-0.1c0.2-1.2,0.3-2.5,0.4-3.7c0-0.4,0.1-0.8,0.1-1.2
	c0.1-0.9,0.2-1.8,0.2-2.7c0-0.5,0.1-0.9,0.1-1.4c0.1-0.9,0.1-1.8,0.1-2.7c0-0.4,0-0.8,0-1.2c0-1.3,0.1-2.6,0.1-3.9c0,0,0,0,0,0
	c0-39-16.8-74.2-43.6-98.5c-0.8-0.7-1.6-1.4-2.4-2.1c-2.4-2.1-4.9-4.1-7.5-6c-0.9-0.6-1.7-1.3-2.6-1.9c-1.7-1.2-3.5-2.4-5.3-3.6
	c-9.9-6.3-20.7-11.4-32.2-15c-2.1-0.6-4.2-1.2-6.3-1.8c-5.3-1.4-10.8-2.4-16.3-3.1c-2.2-0.3-4.5-0.5-6.7-0.7
	C256.9,0.1,253.4,0,250,0s-6.9,0.1-10.2,0.4c-2.3,0.2-4.5,0.4-6.7,0.7c-5.5,0.7-11,1.8-16.3,3.1c-2.1,0.5-4.2,1.1-6.3,1.8
	c-11.5,3.6-22.3,8.6-32.2,15c-1.8,1.2-3.6,2.3-5.3,3.6c-0.9,0.6-1.7,1.2-2.6,1.9c-2.6,1.9-5.1,3.9-7.5,6c-0.8,0.7-1.6,1.4-2.4,2.1
	c-26.8,24.3-43.6,59.5-43.6,98.5c0,0,0,0,0,0c0,1.3,0,2.6,0.1,3.9c0,0.4,0,0.8,0,1.2c0,0.9,0.1,1.8,0.1,2.7c0,0.5,0.1,0.9,0.1,1.4
	c0.1,0.9,0.1,1.8,0.2,2.7c0,0.4,0.1,0.8,0.1,1.2c0.1,1.2,0.3,2.5,0.4,3.7c0,0,0,0.1,0,0.1c0.2,1.3,0.3,2.5,0.5,3.8
	c0.1,0.4,0.1,0.8,0.2,1.2c0.1,0.9,0.3,1.8,0.5,2.6c0.1,0.4,0.2,0.9,0.2,1.3c0.2,0.9,0.4,1.7,0.5,2.6c0.1,0.4,0.2,0.8,0.3,1.2
	c0.3,1.2,0.5,2.3,0.8,3.5c0,0.1,0,0.1,0,0.2c0.3,1.2,0.6,2.4,1,3.6c0.1,0.4,0.2,0.7,0.3,1.1c0.3,0.9,0.5,1.7,0.8,2.6
	c0.1,0.4,0.3,0.8,0.4,1.2c0.3,0.8,0.6,1.7,0.9,2.5c0.1,0.4,0.2,0.7,0.4,1.1c0.4,1.1,0.8,2.2,1.3,3.4c0,0,0,0.1,0,0.1
	c0.5,1.2,0.9,2.3,1.4,3.5c0.1,0.3,0.3,0.6,0.4,0.9c0.4,0.8,0.7,1.7,1.1,2.5c0.2,0.4,0.3,0.7,0.5,1.1c0.4,0.8,0.8,1.6,1.2,2.4
	c0.2,0.3,0.3,0.6,0.5,0.9c0.5,1.1,1.1,2.1,1.7,3.2c0,0,0,0,0,0.1c0.6,1.1,1.2,2.2,1.8,3.3c0.2,0.3,0.3,0.5,0.5,0.8
	c0.5,0.8,1,1.6,1.5,2.4c0.2,0.3,0.4,0.6,0.6,0.9c0.5,0.8,1,1.6,1.5,2.3c0.2,0.3,0.4,0.5,0.5,0.8c1.4,2.1,2.8,4.1,4.3,6.1
	c0.2,0.2,0.3,0.4,0.5,0.6c0.6,0.8,1.2,1.6,1.8,2.3c0.2,0.3,0.4,0.5,0.6,0.8c0.6,0.7,1.2,1.5,1.8,2.2c0.2,0.2,0.4,0.5,0.6,0.7
	c1.6,1.9,3.3,3.7,5,5.5c0.2,0.2,0.3,0.3,0.5,0.5c0.7,0.7,1.4,1.4,2.1,2.1c0.2,0.2,0.5,0.5,0.7,0.7c0.7,0.7,1.4,1.3,2.1,2
	c0.2,0.2,0.4,0.4,0.6,0.6c1.8,1.7,3.7,3.3,5.7,4.9c0.2,0.1,0.3,0.3,0.5,0.4c0.8,0.7,1.6,1.3,2.4,1.9c0.2,0.2,0.5,0.4,0.7,0.6
	c0.8,0.6,1.6,1.2,2.3,1.7c0.2,0.2,0.5,0.3,0.7,0.5c1,0.7,2,1.4,3,2.1C77.9,269.8,20.5,344.7,20.5,394.6
	c0,61.5,70.7,104.6,229.5,104.6c150.7,0,229.5-50,229.5-104.6C479.5,350,424.9,270.9,324.5,243.3z M250,26c1.8,0,3.6,0,5.3,0.1
	c1.8,0.1,3.5,0.2,5.3,0.4c0.9,0.1,1.8,0.2,2.6,0.3c3.3,0.4,6.6,1,9.9,1.7c3,0.7,5.9,1.4,8.8,2.3c2.5,0.8,5,1.7,7.4,2.6
	c0.9,0.3,1.8,0.7,2.6,1.1c2.4,1,4.8,2.2,7.2,3.4c1.6,0.8,3.2,1.7,4.8,2.7c1.3,0.8,2.6,1.6,3.9,2.4c1,0.6,2,1.3,2.9,2
	c0.4,0.3,0.8,0.6,1.3,0.9c3.4,2.4,6.6,5,9.7,7.8c1.3,1.2,2.6,2.4,3.9,3.7c0.6,0.6,1.3,1.3,1.9,1.9c1.2,1.3,2.4,2.6,3.6,3.9
	c0.6,0.7,1.1,1.3,1.7,2c15.7,19.1,24.2,42.8,24.2,67.8c0,0,0,0,0,0c0,1,0,2,0,3c0,0.3,0,0.5,0,0.8c0,0.8-0.1,1.7-0.1,2.5
	c0,0.2,0,0.4,0,0.6c-1.5,23-10.3,44.6-24.8,61.9c-0.1,0.1-0.1,0.2-0.2,0.2c-0.6,0.7-1.2,1.3-1.7,2c-0.1,0.2-0.3,0.3-0.4,0.5
	c-0.6,0.7-1.2,1.3-1.8,2c-0.3,0.3-0.5,0.6-0.8,0.8c-0.5,0.5-1,1-1.5,1.5c-0.3,0.3-0.6,0.6-1,0.9c-0.4,0.4-0.8,0.8-1.3,1.2
	c-0.3,0.3-0.6,0.5-0.9,0.8c-0.5,0.5-1.1,1-1.6,1.5c-0.2,0.2-0.4,0.3-0.5,0.5c-3.3,2.8-6.7,5.5-10.3,8l-1.4,1
	c-17.2,11.3-37.4,17.4-58.5,17.4c-21.1,0-41.3-6.1-58.5-17.4l-1.5-1c-3.6-2.5-7.1-5.1-10.3-8c-0.2-0.1-0.3-0.3-0.5-0.4
	c-0.6-0.5-1.1-1-1.7-1.5c-0.3-0.2-0.5-0.5-0.8-0.8c-0.5-0.4-0.9-0.9-1.3-1.3c-0.3-0.3-0.6-0.6-0.9-0.8c-0.6-0.6-1.2-1.2-1.7-1.8
	c-0.2-0.2-0.3-0.3-0.5-0.5c-0.7-0.7-1.3-1.4-2-2.1c-0.1-0.1-0.2-0.3-0.4-0.4c-0.6-0.7-1.2-1.4-1.8-2.1c0,0-0.1-0.1-0.1-0.1
	c-14.6-17.3-23.4-39-24.9-62c0-0.2,0-0.4,0-0.5c0-0.8-0.1-1.7-0.1-2.5c0-0.2,0-0.5,0-0.7c0-1,0-2,0-3.1c0,0,0,0,0,0
	c0-28.6,11.1-55.5,31.4-75.7c8.2-8.2,17.5-14.9,27.6-20c1.7-0.9,3.5-1.7,5.3-2.5c0.9-0.4,1.8-0.8,2.8-1.2c2.6-1.1,5.3-2,8.1-2.9
	c2.9-0.9,5.9-1.7,8.9-2.4c3.1-0.7,6.3-1.2,9.5-1.6c2.7-0.3,5.5-0.6,8.3-0.7C246.4,26,248.2,26,250,26z M444.4,417.8
	c-7.5,9.5-19.5,18.6-34.8,26.3c-26.5,13.3-75.6,29.1-159.6,29.1c-71.2,0-127.5-9.2-162.8-26.6c-27.4-13.5-40.7-30.5-40.7-52
	c0-36.5,48.4-102.4,135.8-126.2l29.1-7.9c12.2,3.7,25.2,5.7,38.6,5.7c13.4,0,26.4-2,38.7-5.7l29,8c21.4,5.9,41.4,14.6,59.7,26
	c16.3,10.2,30.8,22.2,43.1,35.7c24.4,26.8,33.1,51.5,33.1,64.5C453.5,402.4,450.5,410.2,444.4,417.8z"/>
</svg>
