<svg xmlns="http://www.w3.org/2000/svg" width="38.566" height="43.334" viewBox="0 0 38.566 43.334">
  <g id="Group_501" data-name="Group 501" transform="translate(50.968 -7.997) rotate(90)">
    <path id="Path_231" data-name="Path 231" d="M20.995,12.788H.65A.661.661,0,0,1,0,12.11a.668.668,0,0,1,.325-.552L20.681.08a.66.66,0,0,1,.894.265.652.652,0,0,1,.081.32V12.138A.658.658,0,0,1,20.995,12.788ZM20.334,1.781,3.147,11.471H20.334Z" transform="translate(24.297 20.845)" fill="#fff"/>
    <path id="Path_232" data-name="Path 232" d="M42.418,25.848H.672c-.85,0-.645-1.11-.661-1.658a.665.665,0,0,1,.336-.574L42.093.08a.665.665,0,0,1,.9.265.647.647,0,0,1,.081.314V25.192A.658.658,0,0,1,42.418,25.848ZM41.762,1.775,1.4,24.537h8.13c.038-.558-.233-1.766.661-1.76s.618,1.208.655,1.76H14c.038-.558-.227-1.766.661-1.76s.623,1.208.655,1.76h3.163c.038-.553-.233-1.766.655-1.76s.623,1.208.655,1.76h3.163c.038-.553-.227-1.766.655-1.76s.623,1.208.661,1.76h3.163c.032-.553-.233-1.766.655-1.76s.618,1.208.655,1.76H31.9c.038-.553-.228-1.766.661-1.76s.618,1.208.655,1.76h3.163c.038-.553-.227-1.766.655-1.76s.618,1.208.655,1.76h4.068Z" transform="translate(8.258 12.402)" fill="#fff"/>
    <path id="Path_233" data-name="Path 233" d="M50.975,72.323l-6.153-3.315a.811.811,0,0,0-.271-.076c-.033-.022-30.209,0-30.247,0H9.169a.662.662,0,0,0-.623.46,11.523,11.523,0,0,0,0,7.025.657.657,0,0,0,.623.455H44.507a.707.707,0,0,0,.314-.076l6.153-3.315a.668.668,0,0,0,.244-.9A.782.782,0,0,0,50.975,72.323Zm-36.151-2.08H43.641a11.317,11.317,0,0,0-.282,2H14.488A9.948,9.948,0,0,1,14.824,70.243Zm0,5.314a10.078,10.078,0,0,1-.336-2H43.359a11.928,11.928,0,0,0,.287,2Z" transform="translate(0 -25.905)" fill="#fff"/>
  </g>
</svg>
