<?xml version="1.0" encoding="utf-8"?>
<!-- Generator: Adobe Illustrator 27.8.0, SVG Export Plug-In . SVG Version: 6.00 Build 0)  -->
<svg version="1.1"
	 id="Layer_1" xmlns:sodipodi="http://sodipodi.sourceforge.net/DTD/sodipodi-0.dtd" xmlns:cc="http://creativecommons.org/ns#" xmlns:svg="http://www.w3.org/2000/svg" xmlns:rdf="http://www.w3.org/1999/02/22-rdf-syntax-ns#" xmlns:inkscape="http://www.inkscape.org/namespaces/inkscape" xmlns:dc="http://purl.org/dc/elements/1.1/"
	 xmlns="http://www.w3.org/2000/svg" xmlns:xlink="http://www.w3.org/1999/xlink" x="0px" y="0px" viewBox="0 0 88 59.7"
	 style="enable-background:new 0 0 88 59.7;" xml:space="preserve">
<style type="text/css">
	.st0{fill-rule:evenodd;clip-rule:evenodd;fill:#66B73C;}
</style>
<g transform="translate(0,-952.36218)">
	<path class="st0" d="M65.8,970.1c-1.1,0-2,0.9-2,2v9.7c0,1.1,0.9,2,2,2h13.8c1.1,0,2-0.9,2-2c0-0.4-0.1-0.8-0.4-1.2l-6.9-9.7
		c-0.4-0.5-1-0.8-1.6-0.8H65.8z M67.8,974.1h3.8l4.1,5.7h-7.9C67.8,979.9,67.8,974.1,67.8,974.1z"/>
	<path class="st0" d="M6.4,952.4c-3.5,0-6.4,2.9-6.4,6.4v34.7c0,3.5,2.9,6.4,6.4,6.4h6.2c1.1,3.8,4.5,6.5,8.6,6.5
		c4.1,0,7.6-2.8,8.6-6.5h35c1.1,3.8,4.5,6.5,8.6,6.5s7.6-2.8,8.6-6.5h0.8c2.9,0,5.2-2.4,5.2-5.2v-12.7c0-0.3,0-0.6-0.1-0.8
		c0,0,0-0.1,0-0.1c0,0,0,0,0,0c0,0,0,0,0,0c-0.1-0.3-0.2-0.5-0.4-0.7l-10.7-14.8c-0.4-0.5-1-0.8-1.6-0.8l-12.9,0v-5.9
		c0-3.5-2.9-6.4-6.4-6.4L6.4,952.4L6.4,952.4z M6.4,956.4h49.5c1.3,0,2.4,1,2.4,2.4v37.1H30c-0.8-4.2-4.4-7.4-8.8-7.4
		c-4.4,0-8,3.2-8.8,7.4h-6c-1.3,0-2.4-1-2.4-2.4v-34.7C4,957.4,5,956.4,6.4,956.4z M62.2,968.6l11.9,0l9.9,13.7v12.3
		c0,0.7-0.5,1.2-1.2,1.2h-0.6c-0.8-4.2-4.4-7.4-8.8-7.4s-8,3.2-8.8,7.4h-2.3V968.6L62.2,968.6z M21.2,992.4c2.8,0,4.9,2.2,4.9,5v0.1
		c-0.1,2.7-2.2,4.8-4.9,4.8c-2.8,0-4.9-2.2-4.9-4.9l0,0v0C16.2,994.6,18.4,992.4,21.2,992.4L21.2,992.4z M73.4,992.4
		c2.8,0,4.9,2.2,4.9,5c0,2.8-2.2,4.9-4.9,4.9c-2.8,0-4.9-2.2-4.9-4.9C68.4,994.6,70.6,992.4,73.4,992.4z"/>
	<path class="st0" d="M32.5,966.4c-1.1,0-2,0.9-2,2s0.9,2,2,2c0,0,0,0,0.1,0h19.6c1.1,0,2-0.9,2-2s-0.9-2-2-2c0,0,0,0-0.1,0H32.5z"
		/>
	<path class="st0" d="M23.5,975.4c-1.1,0-2,0.9-2,2s0.9,2,2,2c0,0,0,0,0.1,0h28.6c1.1,0,2-0.9,2-2s-0.9-2-2-2c0,0,0,0-0.1,0
		C52.1,975.4,23.5,975.4,23.5,975.4z"/>
	<path class="st0" d="M5,1008.1c-1.1,0-2,0.9-2,2c0,1.1,0.9,2,2,2c0,0,0,0,0,0h76c1.1,0,2-0.9,2-2s-0.9-2-2-2c0,0,0,0,0,0
		C80.9,1008.1,5,1008.1,5,1008.1z"/>
</g>
</svg>
