<?xml version="1.0" encoding="utf-8"?>
<!-- Generator: Adobe Illustrator 27.8.0, SVG Export Plug-In . SVG Version: 6.00 Build 0)  -->
<svg version="1.1" id="Layer_1" xmlns="http://www.w3.org/2000/svg" xmlns:xlink="http://www.w3.org/1999/xlink" x="0px" y="0px"
	 viewBox="0 0 93 88.2" style="enable-background:new 0 0 93 88.2;" xml:space="preserve">
<style type="text/css">
	.st0{fill:#66B73C;}
</style>
<path class="st0" d="M87.4,55.8c-2-2-4.4-3.5-7-4.4v-38c0-4.1-3.3-7.4-7.4-7.4h-6.7V1.7c0-0.9-0.8-1.7-1.7-1.7h-9.1
	c-0.9,0-1.7,0.8-1.7,1.7v4.2H26.6V1.7c0-0.9-0.8-1.7-1.7-1.7h-9.1c-0.9,0-1.7,0.8-1.7,1.7v4.2H7.4C3.3,5.9,0,9.2,0,13.4v56.5
	c0,4.1,3.3,7.4,7.4,7.4h49.4c4.5,9.5,15.8,13.6,25.3,9.1s13.6-15.8,9.1-25.3C90.3,59.1,89,57.3,87.4,55.8z M3.4,13.4
	c0-2.3,1.8-4.1,4.1-4.1h6.7v6.1c0,0.9,0.8,1.7,1.7,1.7h9.1c0.9,0,1.7-0.8,1.7-1.7c0,0,0,0,0,0V9.3h27.2v6.1c0,0.9,0.8,1.7,1.7,1.7
	c0,0,0,0,0,0h9.1c0.9,0,1.7-0.8,1.7-1.7c0,0,0,0,0,0V9.3H73c2.3,0,4.1,1.8,4.1,4.1v8.2H3.4V13.4z M57.6,53.4c-0.9,0-1.7,0.8-1.7,1.7
	c0,0.9,0.8,1.7,1.7,1.7h2c-3,3.4-4.6,7.9-4.6,12.4c0,1.6,0.2,3.2,0.6,4.7H7.4c-2.3,0-4.1-1.8-4.1-4.1V24.9h73.7v25.5
	c-4.7-0.8-9.6,0.3-13.6,2.9H57.6z M82,77.1c-0.7,0.7-1.7,0.7-2.4,0l-4.3-4.3c-2,0.7-4.3-0.4-5-2.4c-0.6-1.9,0.2-3.9,2-4.8v-9.5
	c0-0.9,0.8-1.7,1.7-1.7c0.9,0,1.7,0.8,1.7,1.7v9.5c0.4,0.2,0.8,0.4,1.1,0.8l0,0c1.1,1.1,1.4,2.6,0.9,4.1l4.3,4.3
	C82.6,75.4,82.6,76.5,82,77.1C82,77.1,82,77.1,82,77.1z M24.5,33.2c0,0.9-0.8,1.7-1.7,1.7c0,0,0,0,0,0h-9.3c-0.9,0-1.7-0.7-1.7-1.6
	s0.7-1.7,1.6-1.7c0,0,0.1,0,0.1,0h9.3C23.7,31.5,24.5,32.2,24.5,33.2C24.5,33.2,24.5,33.2,24.5,33.2z M46.5,33.2
	c0,0.9-0.8,1.7-1.7,1.7h-9.3c-0.9,0-1.7-0.7-1.7-1.6s0.7-1.7,1.6-1.7c0,0,0.1,0,0.1,0h9.3C45.8,31.5,46.5,32.2,46.5,33.2z
	 M68.6,33.2c0,0.9-0.8,1.7-1.7,1.7h-9.3c-0.9,0-1.7-0.7-1.7-1.6s0.7-1.7,1.6-1.7c0,0,0.1,0,0.1,0h9.3C67.9,31.5,68.6,32.2,68.6,33.2
	z M24.5,44.1c0,0.9-0.8,1.7-1.7,1.7c0,0,0,0,0,0h-9.3c-0.9,0-1.7-0.7-1.7-1.6s0.7-1.7,1.6-1.7c0,0,0.1,0,0.1,0h9.3
	C23.7,42.5,24.5,43.2,24.5,44.1C24.5,44.1,24.5,44.1,24.5,44.1z M46.5,44.1c0,0.9-0.8,1.7-1.7,1.7h-9.3c-0.9,0-1.7-0.7-1.7-1.6
	s0.7-1.7,1.6-1.7c0,0,0.1,0,0.1,0h9.3C45.8,42.5,46.5,43.2,46.5,44.1z M68.6,44.1c0,0.9-0.8,1.7-1.7,1.7h-9.3
	c-0.9,0-1.7-0.7-1.7-1.6s0.7-1.7,1.6-1.7c0,0,0.1,0,0.1,0h9.3C67.9,42.5,68.6,43.2,68.6,44.1z M24.5,55.1c0,0.9-0.8,1.7-1.7,1.7
	h-9.3c-0.9,0-1.7-0.8-1.7-1.7c0-0.9,0.8-1.7,1.7-1.7h9.3C23.7,53.4,24.5,54.2,24.5,55.1z M46.5,55.1c0,0.9-0.8,1.7-1.7,1.7h-9.3
	c-0.9,0-1.7-0.8-1.7-1.7c0-0.9,0.8-1.7,1.7-1.7h9.3C45.8,53.4,46.5,54.2,46.5,55.1z M24.5,66c0,0.9-0.8,1.7-1.7,1.7h-9.3
	c-0.9,0-1.7-0.8-1.7-1.7s0.8-1.7,1.7-1.7c0,0,0,0,0,0h9.3C23.7,64.4,24.5,65.1,24.5,66z M46.5,66c0,0.9-0.8,1.7-1.7,1.7h-9.3
	c-0.9,0-1.7-0.8-1.7-1.7c0-0.9,0.8-1.7,1.7-1.7c0,0,0,0,0,0h9.3C45.8,64.4,46.5,65.1,46.5,66z M74.4,68.8c0.2,0.2,0.2,0.6,0,0.8
	s-0.6,0.2-0.8,0c-0.2-0.2-0.2-0.6,0-0.8c0.1-0.1,0.2-0.2,0.4-0.2C74.2,68.7,74.3,68.7,74.4,68.8z"/>
</svg>
