<?xml version="1.0" encoding="utf-8"?>
<!-- Generator: Adobe Illustrator 28.2.0, SVG Export Plug-In . SVG Version: 6.00 Build 0)  -->
<svg version="1.1" id="Laag_1" xmlns="http://www.w3.org/2000/svg" xmlns:xlink="http://www.w3.org/1999/xlink" x="0px" y="0px"
	 viewBox="0 0 30.6 25" style="enable-background:new 0 0 30.6 25;" xml:space="preserve">
<style type="text/css">
	.st0{fill:#FFFFFF;}
	.st1{fill:none;}
</style>
<g id="Group_498" transform="translate(9938.619 -23305.768)">
	<path id="Path_226" class="st0" d="M-9934.5,23305.8h22.2c2.3,0,4.2,1.8,4.2,4.1l0,0v16.7c0,2.3-1.9,4.2-4.2,4.2h-22.3
		c-2.3,0-4.2-1.9-4.2-4.2v-16.7C-9938.6,23307.6-9936.7,23305.8-9934.5,23305.8 M-9912.2,23328c0.8,0,1.4-0.6,1.4-1.4v-16.7
		c0-0.8-0.6-1.4-1.4-1.4h-22.3c-0.8,0-1.4,0.6-1.4,1.4v16.7c0,0.8,0.6,1.4,1.4,1.4H-9912.2z"/>
	<g id="Group_497">
		<path id="Path_227" class="st0" d="M-9923.3,23321.1c-0.3,0-0.6-0.1-0.8-0.2l-13.9-9.8c-0.6-0.5-0.8-1.3-0.3-2
			c0.4-0.6,1.3-0.8,1.9-0.4l0,0l13.1,9.2l13.1-9.2c0.6-0.4,1.5-0.3,2,0.3c0.4,0.6,0.3,1.5-0.3,2l0,0l-13.9,9.8
			C-9922.7,23321-9923,23321.1-9923.3,23321.1"/>
		<rect id="Rectangle_535" x="-9938.6" y="23305.8" class="st1" width="30.6" height="25"/>
	</g>
</g>
</svg>
