<svg xmlns="http://www.w3.org/2000/svg" width="30.63" height="25" viewBox="0 0 30.63 25">
  <g id="Group_498" data-name="Group 498" transform="translate(9938.619 -23305.768)">
    <path id="Path_226" data-name="Path 226" d="M4.176,0H26.4A4.172,4.172,0,0,1,30.61,4.159V20.841A4.162,4.162,0,0,1,26.451,25H4.176A4.162,4.162,0,0,1,.017,20.841V4.159A4.162,4.162,0,0,1,4.176,0M26.451,22.228a1.387,1.387,0,0,0,1.386-1.386V4.159a1.387,1.387,0,0,0-1.386-1.386H4.176A1.387,1.387,0,0,0,2.789,4.159V20.841a1.387,1.387,0,0,0,1.386,1.386Z" transform="translate(-9938.628 23305.768)" fill="#646464"/>
    <g id="Group_497" data-name="Group 497">
      <path id="Path_227" data-name="Path 227" d="M15.3,18.3a1.611,1.611,0,0,1-.813-.239L.582,8.31A1.425,1.425,0,0,1,.247,6.35a1.383,1.383,0,0,1,1.96-.335l13.1,9.178L28.4,6.015a1.441,1.441,0,0,1,1.96.335,1.4,1.4,0,0,1-.335,1.96l-13.91,9.751a1.611,1.611,0,0,1-.813.239" transform="translate(-9938.619 23302.764)" fill="#646464"/>
      <rect id="Rectangle_535" data-name="Rectangle 535" width="30.63" height="25" transform="translate(-9938.619 23305.768)" fill="none"/>
    </g>
  </g>
</svg>
