<svg xmlns="http://www.w3.org/2000/svg" width="30.63" height="25" viewBox="0 0 30.63 25">
  <g id="Group_497" data-name="Group 497" transform="translate(9938.619 -23305.768)">
    <path id="Path_227" data-name="Path 227" d="M15.3,18.3a1.611,1.611,0,0,1-.813-.239L.582,8.31A1.425,1.425,0,0,1,.247,6.35a1.383,1.383,0,0,1,1.96-.335l13.1,9.178L28.4,6.015a1.441,1.441,0,0,1,1.96.335,1.4,1.4,0,0,1-.335,1.96l-13.91,9.751a1.611,1.611,0,0,1-.813.239" transform="translate(-9938.619 23302.764)" fill="#646464"/>
    <rect id="Rectangle_535" data-name="Rectangle 535" width="30.63" height="25" transform="translate(-9938.619 23305.768)" fill="none"/>
  </g>
</svg>
