<?xml version="1.0" encoding="utf-8"?>
<!-- Generator: Adobe Illustrator 27.8.0, SVG Export Plug-In . SVG Version: 6.00 Build 0)  -->
<svg version="1.1" id="Layer_1" xmlns="http://www.w3.org/2000/svg" xmlns:xlink="http://www.w3.org/1999/xlink" x="0px" y="0px"
	 viewBox="0 0 20 18" style="enable-background:new 0 0 20 18;" xml:space="preserve">
<g>
	<path d="M8.8,2C8.4,0.8,7.3,0,6,0S3.6,0.8,3.2,2H0v2h3.2C3.6,5.2,4.7,6,6,6s2.4-0.8,2.8-2H20V2H8.8z M6,4C5.4,4,5,3.6,5,3
		s0.4-1,1-1s1,0.4,1,1S6.6,4,6,4z"/>
	<path d="M6,12c-1.3,0-2.4,0.8-2.8,2H0v2h3.2c0.4,1.2,1.5,2,2.8,2s2.4-0.8,2.8-2H20v-2H8.8C8.4,12.8,7.3,12,6,12z M6,16
		c-0.6,0-1-0.4-1-1s0.4-1,1-1s1,0.4,1,1S6.6,16,6,16z"/>
	<path d="M14,6c-1.3,0-2.4,0.8-2.8,2H0v2h11.2c0.4,1.2,1.5,2,2.8,2s2.4-0.8,2.8-2H20V8h-3.2C16.4,6.8,15.3,6,14,6z M14,10
		c-0.6,0-1-0.4-1-1s0.4-1,1-1s1,0.4,1,1S14.6,10,14,10z"/>
</g>
</svg>
