<?xml version="1.0" encoding="utf-8"?>
<!-- Generator: Adobe Illustrator 27.8.0, SVG Export Plug-In . SVG Version: 6.00 Build 0)  -->
<svg version="1.1" id="Layer_1" xmlns="http://www.w3.org/2000/svg" xmlns:xlink="http://www.w3.org/1999/xlink" x="0px" y="0px"
	 viewBox="0 0 37 31.1" style="enable-background:new 0 0 37 31.1;" xml:space="preserve">
<style type="text/css">
	.st0{fill:#FFFFFF;}
</style>
<path class="st0" d="M29.1,6.7c0.3-0.4,0.6-0.9,0.7-1.5H36c0.6,0,1-0.4,1-1s-0.4-1-1-1h-6.2c-0.2-0.9-0.8-1.8-1.6-2.4
	c-1.9-1.4-4.5-0.9-5.8,0.9c-0.3,0.4-0.5,0.9-0.7,1.5H1c-0.6,0-1,0.4-1,1s0.4,1,1,1h20.7c0.2,0.9,0.8,1.8,1.6,2.4
	C25.1,9,27.8,8.6,29.1,6.7z M24.5,6c-0.5-0.3-0.8-0.8-0.9-1.4C23.5,4,23.6,3.5,24,3c0.7-1,2.1-1.2,3-0.5c0.5,0.3,0.8,0.8,0.9,1.4
	c0,0.1,0,0.2,0,0.3c0,0.5-0.1,0.9-0.4,1.3C26.8,6.5,25.4,6.7,24.5,6z M14.3,18.1c0.3-0.4,0.6-0.9,0.7-1.5h21c0.6,0,1-0.4,1-1
	s-0.4-1-1-1H15c-0.2-0.9-0.8-1.8-1.6-2.4c-1.9-1.4-4.5-0.9-5.8,0.9c-0.3,0.4-0.5,0.9-0.7,1.5H1c-0.6,0-1,0.4-1,1s0.4,1,1,1h5.9
	c0.2,0.9,0.8,1.8,1.6,2.4C10.3,20.3,12.9,19.9,14.3,18.1z M9.7,17.3c-0.5-0.3-0.8-0.8-0.9-1.4c-0.1-0.6,0-1.1,0.4-1.6
	c0.7-1,2.1-1.2,3-0.5c0.5,0.3,0.8,0.8,0.9,1.4c0,0.1,0,0.2,0,0.3l0,0l0,0c0,0.5-0.1,0.9-0.4,1.3C12,17.8,10.6,18,9.7,17.3z
	 M25.2,29.4c0.3-0.4,0.6-0.9,0.7-1.5H36c0.6,0,1-0.4,1-1s-0.4-1-1-1H25.9c-0.2-0.9-0.8-1.8-1.6-2.4c-0.9-0.7-2-0.9-3.1-0.8
	c-1.1,0.2-2.1,0.8-2.7,1.7c-0.3,0.5-0.5,0.9-0.7,1.5H1c-0.6,0-1,0.4-1,1s0.4,1,1,1h16.9c0.2,0.9,0.8,1.8,1.6,2.4
	C21.3,31.6,23.9,31.2,25.2,29.4z M20.6,28.7c-0.5-0.4-0.8-0.9-0.9-1.5c0-0.1,0-0.2,0-0.2c0-0.1,0-0.2,0-0.2c0-0.4,0.2-0.7,0.4-1
	c0.3-0.5,0.8-0.8,1.4-0.9s1.1,0.1,1.6,0.4c0.5,0.3,0.8,0.8,0.9,1.4c0,0.1,0,0.2,0,0.3l0,0l0,0c0,0.5-0.1,0.9-0.4,1.3
	C22.9,29.2,21.6,29.4,20.6,28.7z"/>
</svg>
